REM DIRINDEX 1\2\4,1\2\5,1\2\6,1\3\7,1\3\8,1\3\9,1\3\10
REM DIRNAME folder01,folder02,folder03,folder04,folder05,folder06,folder07,folder08,folder09,folder10
TITLE ""
FILE "a_115.mp3" MP3
  TRACK 01 AUDIO
    TITLE "0:"
    INDEX 01 00:00:00
  TRACK 02 AUDIO
    TITLE "4:cjc057_01788"
    INDEX 01 00:00:13
  TRACK 03 AUDIO
    TITLE "0:"
    INDEX 01 00:01:19
  TRACK 04 AUDIO
    TITLE "5:cjc057_01789"
    INDEX 01 00:01:56
  TRACK 05 AUDIO
    TITLE "0:"
    INDEX 01 00:03:51
  TRACK 06 AUDIO
    TITLE "4:cjc057_01790"
    INDEX 01 00:04:60
  TRACK 07 AUDIO
    TITLE "0:"
    INDEX 01 00:05:67
  TRACK 08 AUDIO
    TITLE "5:cjc057_01791"
    INDEX 01 00:06:28
  TRACK 09 AUDIO
    TITLE "0:"
    INDEX 01 00:08:24
  TRACK 10 AUDIO
    TITLE "4:cjc057_01792"
    INDEX 01 00:09:32
  TRACK 11 AUDIO
    TITLE "0:"
    INDEX 01 00:10:53
  TRACK 12 AUDIO
    TITLE "5:cjc057_01793"
    INDEX 01 00:11:11
  TRACK 13 AUDIO
    TITLE "0:"
    INDEX 01 00:13:35
  TRACK 14 AUDIO
    TITLE "4:cjc057_01794"
    INDEX 01 00:14:43
  TRACK 15 AUDIO
    TITLE "0:"
    INDEX 01 00:15:54
  TRACK 16 AUDIO
    TITLE "5:cjc057_01795"
    INDEX 01 00:16:14
  TRACK 17 AUDIO
    TITLE "0:"
    INDEX 01 00:18:19
  TRACK 18 AUDIO
    TITLE "4:cjc057_01796"
    INDEX 01 00:19:26
  TRACK 19 AUDIO
    TITLE "0:"
    INDEX 01 00:20:39
  TRACK 20 AUDIO
    TITLE "5:cjc057_01797"
    INDEX 01 00:21:00
  TRACK 21 AUDIO
    TITLE "0:"
    INDEX 01 00:23:06
  TRACK 22 AUDIO
    TITLE "4:cjc057_01798"
    INDEX 01 00:24:18
  TRACK 23 AUDIO
    TITLE "0:"
    INDEX 01 00:25:58
  TRACK 24 AUDIO
    TITLE "5:cjc057_01799"
    INDEX 01 00:26:18
  TRACK 25 AUDIO
    TITLE "0:"
    INDEX 01 00:28:25
  TRACK 26 AUDIO
    TITLE "4:cjc057_01800"
    INDEX 01 00:29:34
  TRACK 27 AUDIO
    TITLE "0:"
    INDEX 01 00:30:38
  TRACK 28 AUDIO
    TITLE "5:cjc057_01801"
    INDEX 01 00:30:73
  TRACK 29 AUDIO
    TITLE "0:"
    INDEX 01 00:33:11
  TRACK 30 AUDIO
    TITLE "4:cjc057_01802"
    INDEX 01 00:34:24
  TRACK 31 AUDIO
    TITLE "0:"
    INDEX 01 00:35:37
  TRACK 32 AUDIO
    TITLE "5:cjc057_01803"
    INDEX 01 00:35:72
  TRACK 33 AUDIO
    TITLE "0:"
    INDEX 01 00:38:04
  TRACK 34 AUDIO
    TITLE "4:cjc057_01804"
    INDEX 01 00:39:15
  TRACK 35 AUDIO
    TITLE "0:"
    INDEX 01 00:40:19
  TRACK 36 AUDIO
    TITLE "5:cjc057_01805"
    INDEX 01 00:40:56
  TRACK 37 AUDIO
    TITLE "0:"
    INDEX 01 00:43:56
  TRACK 38 AUDIO
    TITLE "4:cjc057_01806"
    INDEX 01 00:44:65
  TRACK 39 AUDIO
    TITLE "0:"
    INDEX 01 00:46:00
  TRACK 40 AUDIO
    TITLE "5:cjc057_01807"
    INDEX 01 00:46:37
  TRACK 41 AUDIO
    TITLE "0:"
    INDEX 01 00:48:32
  TRACK 42 AUDIO
    TITLE "4:cjc057_01808"
    INDEX 01 00:49:41
  TRACK 43 AUDIO
    TITLE "0:"
    INDEX 01 00:50:52
  TRACK 44 AUDIO
    TITLE "5:cjc057_01809"
    INDEX 01 00:51:13
  TRACK 45 AUDIO
    TITLE "0:"
    INDEX 01 00:54:58
  TRACK 46 AUDIO
    TITLE "4:cjc057_01810"
    INDEX 01 00:55:69
  TRACK 47 AUDIO
    TITLE "0:"
    INDEX 01 00:57:07
  TRACK 48 AUDIO
    TITLE "5:cjc057_01811"
    INDEX 01 00:57:43
  TRACK 49 AUDIO
    TITLE "0:"
    INDEX 01 01:00:00
  TRACK 50 AUDIO
    TITLE "4:cjc057_01812"
    INDEX 01 01:01:07
  TRACK 51 AUDIO
    TITLE "0:"
    INDEX 01 01:02:12
  TRACK 52 AUDIO
    TITLE "5:cjc057_01813"
    INDEX 01 01:02:48
  TRACK 53 AUDIO
    TITLE "0:"
    INDEX 01 01:06:47
  TRACK 54 AUDIO
    TITLE "4:cjc057_01814"
    INDEX 01 01:07:57
  TRACK 55 AUDIO
    TITLE "0:"
    INDEX 01 01:08:70
  TRACK 56 AUDIO
    TITLE "5:cjc057_01815"
    INDEX 01 01:09:30
  TRACK 57 AUDIO
    TITLE "0:"
    INDEX 01 01:11:58
  TRACK 58 AUDIO
    TITLE "4:cjc057_01816"
    INDEX 01 01:12:70
  TRACK 59 AUDIO
    TITLE "0:"
    INDEX 01 01:14:08
  TRACK 60 AUDIO
    TITLE "5:cjc057_01817"
    INDEX 01 01:14:45
  TRACK 61 AUDIO
    TITLE "0:"
    INDEX 01 01:17:59
  TRACK 62 AUDIO
    TITLE "4:cjc057_01818"
    INDEX 01 01:18:68
  TRACK 63 AUDIO
    TITLE "0:"
    INDEX 01 01:20:00
  TRACK 64 AUDIO
    TITLE "5:cjc057_01819"
    INDEX 01 01:20:36
  TRACK 65 AUDIO
    TITLE "0:"
    INDEX 01 01:21:41
  TRACK 66 AUDIO
    TITLE "4:cjc057_01820"
    INDEX 01 01:22:50
  TRACK 67 AUDIO
    TITLE "0:"
    INDEX 01 01:23:69
  TRACK 68 AUDIO
    TITLE "5:cjc057_01821"
    INDEX 01 01:24:28
  TRACK 69 AUDIO
    TITLE "0:"
    INDEX 01 01:27:46
  TRACK 70 AUDIO
    TITLE "4:cjc057_01822"
    INDEX 01 01:28:55
  TRACK 71 AUDIO
    TITLE "0:"
    INDEX 01 01:29:56
  TRACK 72 AUDIO
    TITLE "5:cjc057_01823"
    INDEX 01 01:30:18
  TRACK 73 AUDIO
    TITLE "0:"
    INDEX 01 01:32:60
  TRACK 74 AUDIO
    TITLE "4:cjc057_01824"
    INDEX 01 01:33:72
  TRACK 75 AUDIO
    TITLE "0:"
    INDEX 01 01:35:02
  TRACK 76 AUDIO
    TITLE "5:cjc057_01825"
    INDEX 01 01:35:37
  TRACK 77 AUDIO
    TITLE "0:"
    INDEX 01 01:37:44
  TRACK 78 AUDIO
    TITLE "4:cjc057_01826"
    INDEX 01 01:38:53
  TRACK 79 AUDIO
    TITLE "0:"
    INDEX 01 01:39:68
  TRACK 80 AUDIO
    TITLE "5:cjc057_01827"
    INDEX 01 01:40:29
  TRACK 81 AUDIO
    TITLE "0:"
    INDEX 01 01:42:67
  TRACK 82 AUDIO
    TITLE "4:cjc057_01828"
    INDEX 01 01:44:05
  TRACK 83 AUDIO
    TITLE "0:"
    INDEX 01 01:45:12
  TRACK 84 AUDIO
    TITLE "5:cjc057_01829"
    INDEX 01 01:45:47
  TRACK 85 AUDIO
    TITLE "0:"
    INDEX 01 01:48:50
  TRACK 86 AUDIO
    TITLE "4:cjc057_01830"
    INDEX 01 01:49:61
  TRACK 87 AUDIO
    TITLE "0:"
    INDEX 01 01:50:68
  TRACK 88 AUDIO
    TITLE "5:cjc057_01831"
    INDEX 01 01:51:28
  TRACK 89 AUDIO
    TITLE "0:"
    INDEX 01 01:52:34
  TRACK 90 AUDIO
    TITLE "4:cjc057_01832"
    INDEX 01 01:53:43
  TRACK 91 AUDIO
    TITLE "0:"
    INDEX 01 01:54:52
  TRACK 92 AUDIO
    TITLE "5:cjc057_01833"
    INDEX 01 01:55:13
  TRACK 93 AUDIO
    TITLE "0:"
    INDEX 01 01:57:33
  TRACK 94 AUDIO
    TITLE "4:cjc057_01834"
    INDEX 01 01:58:42
  TRACK 95 AUDIO
    TITLE "0:"
    INDEX 01 01:59:48
  TRACK 96 AUDIO
    TITLE "5:cjc057_01835"
    INDEX 01 02:00:08
  TRACK 97 AUDIO
    TITLE "0:"
    INDEX 01 02:02:32
  TRACK 98 AUDIO
    TITLE "4:cjc057_01836"
    INDEX 01 02:03:41
  TRACK 99 AUDIO
    TITLE "0:"
    INDEX 01 02:04:59
  TRACK 100 AUDIO
    TITLE "5:cjc057_01837"
    INDEX 01 02:05:19
  TRACK 101 AUDIO
    TITLE "0:"
    INDEX 01 02:06:26
  TRACK 102 AUDIO
    TITLE "4:cjc057_01838"
    INDEX 01 02:07:33
  TRACK 103 AUDIO
    TITLE "0:"
    INDEX 01 02:08:39
  TRACK 104 AUDIO
    TITLE "5:cjc057_01839"
    INDEX 01 02:09:01
  TRACK 105 AUDIO
    TITLE "0:"
    INDEX 01 02:09:69
  TRACK 106 AUDIO
    TITLE "4:cjc057_01840"
    INDEX 01 02:11:04
  TRACK 107 AUDIO
    TITLE "0:"
    INDEX 01 02:12:11
  TRACK 108 AUDIO
    TITLE "5:cjc057_01841"
    INDEX 01 02:12:46
  TRACK 109 AUDIO
    TITLE "0:"
    INDEX 01 02:13:59
  TRACK 110 AUDIO
    TITLE "4:cjc057_01842"
    INDEX 01 02:14:69
  TRACK 111 AUDIO
    TITLE "0:"
    INDEX 01 02:16:11
  TRACK 112 AUDIO
    TITLE "5:cjc057_01843"
    INDEX 01 02:16:46
  TRACK 113 AUDIO
    TITLE "0:"
    INDEX 01 02:17:55
